<svg xmlns="http://www.w3.org/2000/svg" viewBox="0 0 85.15 105.85"><defs><style>.cls-1{opacity:0.1;}</style></defs><g id="Layer_2" data-name="Layer 2"><g id="Layer_1-2" data-name="Layer 1"><g class="cls-1"><path d="M41.38,102.93a16.31,16.31,0,0,1-4.13-4.62A23.2,23.2,0,0,1,34,83.56c.73-7.33,3.9-13.69,8.15-19.56A45.14,45.14,0,0,1,57.43,50.34a22.83,22.83,0,0,1,12.51-3,16.1,16.1,0,0,1,8.24,2.77c.22.15.43.31.64.48s.19.18.38.35c-.26.19-.48.35-.71.5-3.36,2.32-6.82,4.5-10.06,7A34.19,34.19,0,0,0,55.75,77.68a75.07,75.07,0,0,1-3.39,10.15c-1.83,4.43-4.88,8.12-8,11.72C43.4,100.68,42.4,101.78,41.38,102.93Z"/><path d="M44.42,104.39c.25-.3.5-.61.76-.9a72.65,72.65,0,0,0,9.89-14,39.35,39.35,0,0,0,4-11.7,23.86,23.86,0,0,1,6.7-12.59,66.61,66.61,0,0,1,15.7-11.76,2.58,2.58,0,0,1,.34-.12,14.76,14.76,0,0,1,2.75,5.81,25.39,25.39,0,0,1-.21,12.13,48.06,48.06,0,0,1-19.45,29.14A30,30,0,0,1,54,105.5a15.63,15.63,0,0,1-9-.73,3,3,0,0,1-.36-.17A1.6,1.6,0,0,1,44.42,104.39Z"/><path d="M3,23.63c1.43,1.78,2.76,3.52,4.16,5.19,4.11,4.86,8.63,9.26,14.22,12.42a23,23,0,0,0,3.82,1.81A22.39,22.39,0,0,1,36.54,51.9c1.7,2.47,3.07,5.17,4.61,7.76A1,1,0,0,1,41,61a50.5,50.5,0,0,0-6.33,10c-.35.75-.76.83-1.48.65a40.2,40.2,0,0,1-12.77-6A47.54,47.54,0,0,1,3,44.94,30.38,30.38,0,0,1,0,32.42,15.54,15.54,0,0,1,2.68,24C2.75,23.88,2.85,23.79,3,23.63Z"/><path d="M5.16,21.14a16,16,0,0,1,6.68-3.76c6.45-1.84,12.52-.64,18.31,2.42,6.93,3.67,12.26,9.1,16.69,15.47A49.24,49.24,0,0,1,53,46.73c.75,2.13.71,2.05-1,3.52-2.61,2.25-5.12,4.6-7.67,6.91l-.59.56c-.19-.36-.36-.65-.51-.95a39.91,39.91,0,0,0-8.79-11.9,21.54,21.54,0,0,0-7-4.25,35.87,35.87,0,0,1-13.89-9.47c-2.83-3-5.36-6.29-8-9.46A5.11,5.11,0,0,1,5.16,21.14Z"/><path d="M56.5,47.2c-.49-1-.81-1.81,0-2.9A32.09,32.09,0,0,0,61.87,33a19,19,0,0,0,.42-7.08,31.68,31.68,0,0,1,1.28-13A68.86,68.86,0,0,1,68,1.68c.32-.67.62-.77,1.27-.47a16.69,16.69,0,0,1,8.44,9.23,25.2,25.2,0,0,1,1.38,13.23,48.34,48.34,0,0,1-7.85,20,1.07,1.07,0,0,1-1.1.58A23.82,23.82,0,0,0,57,47C56.84,47.07,56.71,47.11,56.5,47.2Z"/><path d="M65.17.15c-.14.34-.25.63-.38.91a61.44,61.44,0,0,0-5.15,14.76,32.05,32.05,0,0,0-.42,10.43A18.67,18.67,0,0,1,57.3,36.74c-.8,1.71-1.76,3.34-2.75,5.21-.44-.77-.77-1.3-1.06-1.85A61.11,61.11,0,0,0,41.72,24.41a1,1,0,0,1-.36-1.11C43.9,15,48.29,8,55.28,2.69A13.62,13.62,0,0,1,64.7,0,4.12,4.12,0,0,1,65.17.15Z"/></g></g></g></svg>